<svg width="20" height="20" viewBox="0 0 20 20" fill="none" xmlns="http://www.w3.org/2000/svg">
<path d="M3.33341 3.33325L16.6667 16.6666M11.6667 11.8633C11.2245 12.2592 10.6404 12.4999 10.0001 12.4999C8.61937 12.4999 7.50008 11.3806 7.50008 9.99992C7.50008 9.35962 7.74079 8.77555 8.13666 8.33325M16.3399 13.0063C16.816 12.5918 17.2419 12.1748 17.6087 11.789C18.575 10.7723 18.575 9.22756 17.6087 8.21083C15.9788 6.49603 13.1797 4.16659 10.0001 4.16659C9.25727 4.16659 8.53522 4.29372 7.844 4.51045M5.41675 5.66941C4.20128 6.44528 3.16478 7.39724 2.3915 8.21083C1.42516 9.22756 1.42516 10.7723 2.3915 11.789C4.02132 13.5038 6.82048 15.8333 10.0001 15.8333C11.5568 15.8333 13.0224 15.2749 14.3041 14.5036" stroke="#666666" stroke-width="1.25" stroke-linecap="round"/>
</svg>
